<svg width="1200" height="700" xmlns="http://www.w3.org/2000/svg">
  <rect width="1200" height="700" fill="#f8f8fa" rx="0"/>
  <rect x="0" y="0" width="200" height="700" fill="#0b0b14"/>
  <rect x="200" y="0" width="1000" height="56" fill="#ffffff" stroke="#e5e7eb" stroke-width="1"/>
  <rect x="230" y="80" width="460" height="280" fill="#ffffff" stroke="#e5e7eb" stroke-width="1"/>
  <rect x="710" y="80" width="460" height="280" fill="#ffffff" stroke="#e5e7eb" stroke-width="1"/>
  <rect x="230" y="380" width="940" height="280" fill="#ffffff" stroke="#e5e7eb" stroke-width="1"/>
  <rect x="20" y="20" width="160" height="24" fill="#7c3aed" opacity="0.3"/>
  <rect x="20" y="64" width="160" height="16" fill="#ffffff" opacity="0.1"/>
  <rect x="20" y="90" width="160" height="16" fill="#ffffff" opacity="0.1"/>
  <rect x="20" y="116" width="160" height="16" fill="#ffffff" opacity="0.1"/>
  <rect x="20" y="142" width="160" height="16" fill="#ffffff" opacity="0.1"/>
  <circle cx="260" cy="220" r="80" fill="#7c3aed" opacity="0.1"/>
  <rect x="740" y="120" width="200" height="12" fill="#e5e7eb"/>
  <rect x="740" y="145" width="160" height="12" fill="#e5e7eb"/>
  <rect x="740" y="170" width="180" height="12" fill="#e5e7eb"/>
  <rect x="740" y="195" width="140" height="12" fill="#e5e7eb"/>
  <rect x="740" y="220" width="200" height="12" fill="#7c3aed" opacity="0.2"/>
  <rect x="260" y="420" width="880" height="24" fill="#e5e7eb"/>
  <rect x="260" y="460" width="880" height="16" fill="#f3f4f6"/>
  <rect x="260" y="486" width="880" height="16" fill="#f3f4f6"/>
  <rect x="260" y="512" width="880" height="16" fill="#f3f4f6"/>
  <rect x="260" y="538" width="880" height="16" fill="#f3f4f6"/>
  <text x="600" y="640" text-anchor="middle" font-family="Inter,system-ui" font-size="14" fill="#9ca3af">Dashboard Preview — Replace with actual screenshot</text>
</svg>
